<?xml version="1.0" standalone="no"?>
<!DOCTYPE svg PUBLIC "-//W3C//DTD SVG 20010904//EN"
 "http://www.w3.org/TR/2001/REC-SVG-20010904/DTD/svg10.dtd">
<svg version="1.0" xmlns="http://www.w3.org/2000/svg"
 width="512.000000pt" height="512.000000pt" viewBox="0 0 512.000000 512.000000"
 preserveAspectRatio="xMidYMid meet">

<g transform="translate(0.000000,512.000000) scale(0.100000,-0.100000)"
fill="#000000" stroke="none">
<path d="M935 4998 c-26 -65 -74 -325 -100 -549 l-7 -57 45 -31 c57 -39 91
-79 128 -153 31 -61 79 -225 79 -269 0 -49 -257 -295 -566 -541 -185 -148
-242 -205 -314 -314 -63 -96 -85 -168 -85 -274 1 -71 5 -95 28 -143 37 -81
126 -166 222 -212 124 -60 222 -75 485 -73 183 2 240 -1 304 -16 67 -15 203
-59 213 -70 4 -4 83 -436 83 -453 0 -7 -11 -15 -25 -19 -32 -8 -71 -54 -80
-94 -5 -23 0 -45 19 -84 17 -36 26 -69 26 -103 0 -35 6 -58 20 -76 11 -14 20
-35 20 -47 0 -11 7 -34 15 -50 15 -28 13 -34 -28 -128 -77 -174 -148 -260
-256 -310 -52 -25 -66 -27 -191 -26 -209 0 -336 43 -454 153 -36 34 -69 61
-74 61 -5 0 -16 -8 -26 -18 -14 -17 -15 -23 -2 -58 57 -164 182 -338 311 -437
166 -127 340 -193 480 -185 157 10 230 74 346 301 41 80 75 144 77 142 2 -1
34 -173 72 -380 38 -208 73 -382 78 -387 17 -17 57 -5 60 19 2 12 -44 283
-102 602 -58 319 -106 587 -106 595 0 9 14 15 40 18 22 2 40 1 40 -1 0 -26
233 -1228 239 -1234 5 -5 19 -7 32 -5 18 2 25 10 27 33 1 17 -49 301 -112 633
l-114 602 21 39 21 39 76 -4 c41 -3 99 -7 127 -10 l53 -5 -39 -47 c-50 -60
-67 -95 -79 -160 -28 -155 51 -281 296 -469 238 -183 467 -292 794 -378 214
-56 358 -76 584 -82 l202 -6 15 24 c14 21 14 33 1 109 -14 84 -45 192 -80 282
l-18 47 41 83 c39 78 147 208 173 208 19 0 81 -75 119 -145 l40 -72 -24 -64
c-57 -158 -44 -212 76 -318 109 -97 148 -102 226 -29 l31 30 59 -49 c85 -70
191 -139 277 -179 92 -42 128 -50 143 -32 16 19 59 162 74 248 20 109 17 401
-5 515 -79 410 -257 764 -520 1033 l-91 93 3 122 c3 98 -1 138 -17 200 -68
261 -278 464 -594 576 -48 17 -154 44 -235 61 -81 17 -169 38 -197 47 -275 88
-432 238 -464 443 -15 90 -14 100 8 100 40 0 199 -52 274 -90 107 -54 173
-107 188 -150 19 -55 52 -102 111 -156 92 -83 194 -125 438 -177 280 -60 548
-211 675 -380 144 -191 175 -384 101 -638 -24 -82 -20 -109 14 -109 45 0 88
139 97 310 7 141 -16 253 -77 369 -99 190 -295 355 -524 441 -132 50 -128 46
-61 61 33 7 98 13 145 13 72 0 95 -4 150 -28 79 -35 123 -39 128 -13 5 27 -21
51 -91 83 -86 39 -219 44 -364 15 -239 -49 -467 -3 -592 121 -51 51 -68 81
-94 168 -18 62 -40 210 -32 218 2 2 24 -10 50 -28 155 -107 322 -135 471 -79
59 22 107 70 102 103 -2 16 -13 23 -43 29 -92 19 -118 30 -154 63 -60 53 -81
116 -97 282 -22 234 -86 388 -217 528 -110 118 -253 203 -412 245 -111 29
-289 29 -399 0 -153 -40 -385 -170 -517 -288 -76 -69 -65 -88 62 -104 116 -14
221 -51 302 -105 133 -91 183 -198 141 -303 -14 -35 -19 -39 -60 -44 -25 -2
-54 -13 -66 -23 -66 -59 -74 -240 -13 -280 l24 -15 -40 -52 c-90 -119 -109
-234 -85 -513 22 -265 12 -320 -73 -397 -80 -72 -163 -71 -242 3 -46 43 -58
47 -77 28 -27 -27 -7 -63 66 -116 24 -17 56 -34 73 -37 l29 -7 -45 -43 c-63
-62 -122 -157 -147 -238 -16 -54 -19 -87 -16 -155 4 -95 21 -139 98 -261 22
-36 40 -71 40 -78 0 -10 -24 -13 -99 -13 l-99 0 -7 40 c-4 22 -11 43 -16 46
-6 4 -8 51 -4 122 8 144 -9 243 -62 352 -44 91 -139 190 -226 235 -35 18 -59
38 -62 50 -16 70 -215 1139 -215 1153 0 10 9 37 20 60 52 107 2 262 -84 262
-17 0 -13 -11 -86 280 -59 234 -167 638 -176 651 -3 5 -16 9 -30 9 -19 0 -28
-8 -39 -32z m100 -373 c107 -397 147 -577 135 -604 -6 -13 -13 -22 -15 -19 -3
2 -16 43 -30 91 -39 136 -81 213 -153 285 l-63 63 16 112 c21 143 47 289 51
284 2 -1 29 -97 59 -212z m1929 58 c39 -118 59 -252 54 -370 -2 -56 -6 -105
-10 -108 -4 -4 -22 -2 -40 3 -18 6 -45 13 -60 16 -22 5 -30 15 -39 49 -31 117
-120 269 -216 368 l-63 66 57 17 c77 23 144 33 225 35 l66 1 26 -77z m137 38
c67 -23 166 -72 199 -99 23 -19 25 -26 25 -114 0 -51 -7 -118 -14 -148 -17
-70 -73 -179 -112 -216 l-30 -28 -44 24 c-25 14 -43 30 -41 36 13 35 17 209 7
289 -11 80 -41 217 -57 259 -8 20 1 20 67 -3z m-509 -129 c83 -87 144 -182
182 -284 l26 -68 -49 0 c-47 0 -52 3 -87 45 -73 89 -220 169 -363 198 l-65 14
56 42 c53 39 205 131 219 131 3 0 40 -35 81 -78z m903 -172 c45 -70 76 -139
95 -208 10 -38 9 -49 -10 -88 -37 -76 -112 -122 -228 -140 -40 -6 -44 -5 -80
37 l-39 43 45 55 c78 96 121 223 122 355 l0 59 26 -24 c15 -13 46 -53 69 -89z
m149 -565 c9 -27 13 -52 10 -55 -12 -11 -141 -2 -177 13 -44 19 -117 74 -117
88 0 5 6 9 14 9 39 0 147 44 191 78 l50 38 7 -60 c4 -34 14 -83 22 -111z
m-2353 115 c10 -31 9 -49 0 -82 -14 -46 -39 -73 -242 -259 -229 -210 -395
-403 -496 -581 -71 -123 -98 -212 -98 -318 0 -96 19 -146 81 -218 19 -23 31
-42 25 -42 -5 0 -45 11 -88 25 -322 101 -375 388 -122 658 38 42 125 119 192
171 251 195 465 394 635 589 47 53 89 97 93 97 5 0 14 -18 20 -40z m1459 -104
c237 -48 394 -138 506 -290 l29 -40 -45 27 c-133 77 -321 130 -531 148 -79 7
-147 17 -151 23 -13 18 -9 85 6 121 18 43 28 44 186 11z m21 -236 c17 0 19 -8
19 -63 0 -34 7 -89 15 -120 19 -74 19 -72 -11 -85 -20 -10 -25 -18 -22 -40 3
-25 6 -27 50 -27 43 0 49 -3 76 -40 16 -22 50 -59 76 -82 34 -30 45 -46 39
-56 -15 -27 -71 -67 -129 -94 l-58 -26 -53 28 c-85 44 -142 124 -158 224 l-7
44 30 -6 c62 -13 74 60 12 76 -19 5 -36 10 -37 11 -6 6 18 166 33 215 l15 54
46 -7 c25 -3 54 -6 64 -6z m-1552 -500 c45 -250 81 -457 81 -460 0 -3 -80 -5
-177 -6 -98 0 -245 -3 -328 -5 -142 -4 -153 -3 -203 20 -64 29 -75 51 -62 122
21 109 119 274 278 468 116 141 309 338 320 326 5 -6 46 -215 91 -465z m1321
295 c-15 -172 -3 -235 71 -365 86 -151 101 -276 38 -323 -40 -29 -65 -71 -80
-132 -32 -135 -128 -260 -248 -324 -35 -18 -65 -31 -67 -28 -9 8 36 88 93 167
68 93 117 195 139 285 19 82 21 241 4 363 -15 110 -15 266 0 322 13 49 51 142
56 138 1 -2 -1 -48 -6 -103z m-1087 -737 c81 -431 147 -790 147 -799 0 -9 -14
-20 -35 -26 -32 -10 -36 -9 -40 10 -14 62 -275 1515 -275 1531 0 18 36 66 49
66 4 0 73 -352 154 -782z m1671 245 l7 -72 -35 -7 c-20 -3 -52 -3 -71 0 -33 6
-35 9 -35 45 0 34 4 40 38 55 20 9 48 25 62 36 14 10 25 18 26 17 1 -1 4 -34
8 -74z m428 -174 c116 -59 205 -178 216 -291 4 -47 4 -48 -31 -63 -122 -51
-267 27 -344 184 -37 75 -39 154 -4 182 35 28 91 24 163 -12z m-397 1 c3 -10
14 -25 25 -35 11 -10 20 -21 20 -25 0 -11 -111 -57 -155 -65 -35 -5 -46 -2
-83 25 l-43 31 26 33 c14 18 25 37 25 43 0 6 37 10 90 10 76 0 91 -3 95 -17z
m-302 -105 c48 -59 112 -95 168 -95 63 0 167 33 217 70 32 23 42 26 42 14 0
-15 -294 -314 -309 -314 -5 0 -13 18 -20 40 -10 35 -16 40 -40 40 -36 0 -44
-20 -31 -71 15 -55 4 -83 -47 -125 l-46 -38 -30 38 c-36 45 -99 89 -162 114
l-47 18 91 63 c50 34 91 68 91 76 0 31 -51 58 -65 35 -13 -21 -25 -9 -25 25 0
137 134 206 213 110z m-514 -112 c-12 -21 -42 -63 -65 -93 -45 -58 -104 -173
-104 -202 0 -22 -5 -25 -62 -33 -57 -9 -58 -5 -24 78 34 82 97 158 190 231 45
35 83 62 85 60 2 -2 -7 -20 -20 -41z m944 -38 c8 -19 -105 -164 -232 -297 -79
-83 -101 -112 -96 -127 7 -24 31 -34 54 -22 30 16 241 247 294 321 17 24 18
24 32 6 13 -17 11 -24 -13 -68 -15 -27 -80 -120 -144 -206 -175 -234 -222
-343 -222 -509 l0 -83 -92 0 -92 0 -22 46 c-27 55 -24 119 9 187 25 52 25 75
-2 91 -26 16 -61 -28 -87 -110 -24 -78 -24 -96 -6 -157 14 -46 13 -47 -7 -47
-55 1 -103 20 -134 54 -42 45 -42 76 -2 152 85 160 163 247 416 465 94 82 209
186 255 233 46 46 84 85 84 85 1 1 4 -6 7 -14z m152 -226 c17 -11 41 -24 53
-30 l24 -9 -21 -33 c-42 -64 -114 -201 -147 -278 -46 -109 -61 -186 -46 -237
17 -56 15 -106 -6 -132 -15 -18 -34 -23 -130 -32 -61 -6 -115 -8 -119 -4 -15
15 -15 134 1 196 25 96 67 170 193 340 64 85 125 174 136 197 12 24 23 43 26
43 4 0 20 -9 36 -21z m-843 -35 c57 -29 115 -78 124 -106 8 -28 -109 -148
-145 -148 -34 0 -106 75 -120 125 -12 45 -2 101 23 140 19 29 41 27 118 -11z
m1112 -101 c21 -43 52 -120 68 -173 16 -52 46 -142 65 -200 51 -154 51 -151 9
-207 -19 -26 -41 -57 -49 -68 -13 -18 -15 -16 -30 30 -9 28 -26 99 -37 160
-24 136 -64 220 -155 328 l-65 78 37 64 c37 63 39 65 79 65 l41 0 37 -77z
m415 15 c73 -43 71 -39 46 -127 -63 -216 -77 -483 -36 -681 38 -182 110 -342
217 -485 112 -152 323 -330 501 -424 66 -35 64 -30 43 -110 -10 -40 -21 -75
-23 -77 -8 -9 -130 51 -203 99 -165 109 -301 249 -426 437 -243 366 -332 797
-241 1170 17 72 71 220 80 220 3 0 22 -10 42 -22z m-2301 -327 c16 -10 31 -71
32 -122 0 -25 -5 -39 -17 -43 -22 -9 -28 0 -43 69 -7 33 -16 68 -21 77 -12 23
22 37 49 19z m2526 -33 c16 -26 -4 -53 -40 -53 -23 0 -30 5 -32 23 -7 47 47
69 72 30z m-2668 4 c6 -4 17 -18 24 -31 15 -30 7 -35 -77 -51 -72 -14 -110
-38 -100 -64 11 -27 35 -30 118 -11 43 10 81 16 83 14 2 -2 7 -18 11 -36 6
-31 5 -32 -37 -43 -137 -35 -133 -34 -133 -65 0 -25 4 -31 27 -33 14 -2 52 4
84 12 65 17 78 11 67 -34 -8 -38 -25 -46 -116 -59 -111 -15 -122 -11 -117 47
1 12 -10 36 -24 53 -29 34 -31 43 -15 88 10 28 8 34 -20 66 -34 39 -39 66 -17
84 8 7 61 25 118 41 121 34 110 32 124 22z m2944 -153 c84 -128 186 -337 230
-469 34 -103 77 -306 67 -316 -9 -9 -93 52 -154 113 -165 166 -253 415 -253
722 0 93 0 94 20 76 11 -10 51 -66 90 -126z m-2202 39 c-14 -62 8 -123 63
-172 l39 -36 -87 0 -88 0 0 108 0 107 40 20 c22 11 41 20 42 20 1 0 -3 -21 -9
-47z m-149 -35 c14 -48 14 -78 0 -127 l-11 -39 -86 6 c-48 4 -147 10 -219 13
l-133 7 0 37 c0 33 3 38 29 43 34 7 69 41 77 74 6 23 8 23 170 23 l163 0 10
-37z m1671 -425 c12 -38 19 -72 17 -75 -3 -2 -35 24 -71 59 -63 60 -66 66 -66
109 0 32 10 65 32 109 l32 62 17 -97 c10 -53 27 -128 39 -167z m-1334 55 l51
-27 -23 -55 c-38 -96 -56 -205 -55 -346 0 -71 4 -154 9 -182 5 -29 6 -53 2
-53 -10 0 -169 97 -223 137 -45 33 -47 37 -41 72 19 105 60 236 99 318 41 83
100 163 121 163 5 0 32 -12 60 -27z m1812 -76 c2 -18 -3 -29 -17 -37 -29 -15
-61 3 -61 35 0 50 72 52 78 2z m-1524 -116 c-11 -152 25 -393 83 -554 14 -38
22 -71 19 -74 -7 -8 -138 35 -238 77 l-76 32 -13 81 c-30 180 -12 401 42 526
l20 48 84 -25 85 -25 -6 -86z m228 53 l67 -7 57 -130 c101 -232 228 -616 210
-635 -7 -6 -134 11 -259 35 -85 16 -89 18 -107 52 -27 54 -76 215 -95 311 -18
95 -32 323 -21 365 6 25 10 27 44 22 20 -4 67 -9 104 -13z m1656 -385 c4 -36
-21 -55 -53 -41 -44 20 -24 76 25 70 18 -2 26 -10 28 -29z m-445 -217 l49 -53
-28 -30 c-15 -16 -35 -29 -44 -29 -9 0 -49 31 -89 69 l-74 69 5 53 c3 30 11
67 17 83 l11 28 52 -68 c28 -38 74 -93 101 -122z"/>
<path d="M2830 1976 c-6 -8 -10 -25 -8 -38 4 -28 48 -37 68 -14 10 13 10 16
-1 16 -11 0 -11 2 1 10 13 9 12 12 -4 25 -25 19 -40 19 -56 1z"/>
<path d="M4621 2966 c-7 -8 -11 -25 -9 -38 2 -18 9 -23 32 -23 36 0 56 27 40
53 -14 22 -48 27 -63 8z"/>
</g>
</svg>
