<?xml version="1.0" standalone="no"?>
<!DOCTYPE svg PUBLIC "-//W3C//DTD SVG 20010904//EN"
 "http://www.w3.org/TR/2001/REC-SVG-20010904/DTD/svg10.dtd">
<svg version="1.0" xmlns="http://www.w3.org/2000/svg"
 width="512.000000pt" height="512.000000pt" viewBox="0 0 512.000000 512.000000"
 preserveAspectRatio="xMidYMid meet">

<g transform="translate(0.000000,512.000000) scale(0.100000,-0.100000)"
fill="#000000" stroke="none">
<path d="M4899 4799 c-48 -61 -92 -76 -255 -89 -159 -13 -202 -22 -262 -56
-121 -70 -167 -254 -113 -444 12 -41 25 -116 28 -165 5 -79 3 -96 -15 -132
-49 -95 -116 -121 -257 -98 -191 31 -324 16 -455 -50 -143 -72 -222 -157 -322
-349 -101 -190 -239 -322 -363 -345 -33 -6 -116 -32 -185 -57 -69 -25 -133
-48 -143 -51 -15 -5 -17 2 -17 43 0 27 -4 65 -10 84 -9 32 -8 36 20 58 58 45
73 108 56 233 l-7 57 53 7 c111 14 211 87 236 174 11 35 17 40 58 50 114 29
209 104 242 192 14 38 28 55 64 78 53 33 98 95 122 164 38 111 29 227 -17 227
-12 0 -54 -9 -92 -20 -38 -11 -73 -20 -76 -20 -3 0 -4 35 -1 79 5 81 -9 145
-32 154 -17 7 -559 -179 -657 -225 -94 -44 -187 -106 -258 -172 -57 -54 -153
-176 -186 -239 l-20 -37 -81 0 c-253 0 -485 -145 -608 -380 -57 -107 -52 -118
66 -140 l66 -12 -2 -173 -3 -173 -47 -76 c-63 -102 -63 -104 44 -149 l55 -24
34 -138 c20 -83 41 -145 52 -156 18 -18 20 -17 90 6 40 14 89 25 108 25 52 0
114 -19 107 -33 -2 -7 -21 -48 -40 -93 -43 -97 -73 -209 -86 -320 -6 -54 -18
-100 -35 -133 -51 -102 -70 -265 -44 -393 11 -54 10 -57 -31 -149 -23 -52 -53
-125 -67 -164 -14 -38 -28 -73 -32 -77 -3 -4 -45 6 -92 22 -47 16 -164 43
-260 59 -96 17 -208 40 -249 53 l-75 24 -6 64 c-9 101 -28 129 -153 228 -61
49 -124 97 -140 107 l-29 19 -32 -38 c-19 -23 -35 -34 -39 -28 -3 6 -41 34
-82 61 -105 71 -150 69 -199 -9 -14 -22 -32 -40 -39 -40 -24 0 -64 -57 -71
-101 -4 -23 -14 -57 -21 -75 -19 -46 -17 -93 5 -130 20 -33 159 -153 263 -227
123 -88 253 -137 364 -137 67 0 120 -23 306 -132 391 -228 623 -354 674 -364
44 -8 109 12 141 45 28 28 95 144 259 451 l88 165 96 -95 c70 -70 99 -106 108
-136 17 -58 81 -153 134 -199 30 -26 74 -88 128 -180 157 -263 159 -265 225
-163 138 215 349 492 504 663 50 55 91 104 91 109 0 5 -33 59 -74 120 -69 104
-146 242 -146 262 0 18 117 189 192 282 41 51 93 128 116 170 49 93 106 259
124 361 10 57 17 75 32 81 17 6 27 -3 58 -46 44 -61 112 -114 262 -204 166
-99 265 -199 279 -280 4 -19 7 -81 8 -136 l3 -101 -39 -49 c-22 -27 -42 -53
-46 -57 -3 -5 -22 1 -40 12 -43 27 -104 27 -147 1 -32 -20 -32 -20 -45 1 -39
64 -150 78 -205 25 l-28 -26 -39 20 c-50 26 -105 26 -137 0 -20 -15 -32 -18
-56 -11 -58 17 -115 -11 -133 -66 -22 -69 32 -197 146 -340 51 -65 72 -84 104
-94 51 -15 75 -8 140 41 68 51 85 53 65 5 -33 -81 -7 -179 63 -232 32 -25 45
-28 109 -28 65 0 77 3 118 32 54 39 58 31 25 -62 -39 -111 -2 -161 158 -215
236 -79 383 -55 383 62 0 26 -8 52 -19 67 -15 19 -16 29 -8 52 16 40 -6 103
-47 135 l-32 26 18 38 c34 68 -2 154 -75 181 -32 11 -32 12 -32 76 0 64 -1 66
-41 102 l-40 36 29 41 29 41 42 -15 c38 -14 48 -14 82 -1 31 12 51 31 98 101
71 105 81 156 47 232 l-21 48 94 136 c52 75 105 142 117 147 36 16 69 72 69
119 0 107 -117 170 -207 111 -29 -20 -63 -73 -63 -100 0 -22 -123 -190 -139
-190 -5 0 -52 66 -104 147 -122 188 -309 452 -422 592 -61 78 -92 125 -102
160 -8 28 -23 67 -33 87 -23 43 -90 106 -136 125 l-34 14 42 63 c87 129 203
229 334 288 37 17 135 50 218 74 196 56 227 68 282 105 86 60 137 161 138 275
1 77 -22 136 -90 231 -87 121 -97 149 -73 211 18 48 49 71 129 98 145 48 210
126 210 251 0 34 -3 69 -6 78 -11 30 -51 18 -85 -25z m-7 -141 c-27 -44 -77
-71 -192 -107 -153 -48 -231 -115 -260 -221 -17 -63 -5 -116 48 -216 43 -83
46 -94 47 -164 0 -61 -5 -85 -26 -130 -40 -83 -123 -159 -206 -187 l-31 -11
34 71 c52 110 68 186 68 312 -1 77 -7 135 -22 195 -56 223 -32 335 83 393 37
19 121 34 235 42 91 7 199 30 214 45 22 22 27 8 8 -22z m-1575 -470 c-9 -77
-44 -137 -101 -175 -46 -31 -53 -33 -140 -33 -177 0 -376 -53 -376 -99 0 -4 6
-16 14 -26 13 -18 16 -18 104 9 87 27 260 50 288 39 20 -7 18 -15 -15 -60 -51
-70 -130 -99 -331 -123 -98 -11 -120 -21 -120 -50 0 -34 24 -42 86 -31 88 17
97 15 83 -11 -34 -67 -112 -108 -205 -108 l-43 0 6 48 c13 111 -99 198 -191
148 -44 -23 -83 -83 -69 -104 18 -29 49 -26 73 7 40 57 110 34 110 -36 0 -29
-8 -44 -40 -74 -123 -117 -350 -69 -350 74 0 69 174 269 319 366 90 61 231
126 336 154 133 37 527 134 549 135 17 2 18 -3 13 -50z m1295 -3 c41 -27 95
-100 114 -155 44 -122 -33 -280 -159 -323 l-48 -16 21 29 c51 71 74 142 74
226 0 73 -3 87 -39 160 -61 124 -59 117 -28 109 16 -3 45 -17 65 -30z m-2544
-413 l43 -7 -27 -35 c-86 -113 -82 -217 11 -298 44 -39 68 -49 155 -66 98 -19
110 -28 110 -82 0 -29 -5 -47 -14 -50 -12 -5 -935 172 -944 180 -8 9 106 161
153 204 137 125 329 183 513 154z m-368 -497 c68 -14 124 -25 125 -25 2 0 6
-20 9 -44 17 -113 100 -217 206 -257 74 -28 115 -25 152 11 68 68 113 12 69
-87 -24 -52 -52 -70 -120 -80 l-54 -8 -17 -54 c-10 -29 -24 -58 -32 -63 -32
-23 -220 -110 -295 -137 l-82 -30 -10 37 c-5 20 -17 66 -26 102 -38 151 -31
139 -91 166 l-54 24 35 66 c35 65 35 66 35 197 0 136 7 207 20 207 4 0 62 -11
130 -25z m2066 -196 c55 -14 128 -78 149 -131 l15 -38 -44 0 c-68 0 -222 -43
-326 -92 -173 -81 -303 -171 -425 -293 -94 -94 -144 -163 -222 -308 -92 -173
-166 -281 -253 -367 -147 -148 -290 -196 -453 -154 -97 25 -132 47 -166 107
-40 71 -65 166 -55 220 7 47 59 107 92 107 26 0 58 -41 67 -83 18 -84 85 -137
172 -137 87 0 139 52 199 198 15 37 43 104 62 150 27 67 32 85 22 97 -18 22
-47 18 -65 -7 -8 -13 -36 -77 -62 -142 -77 -197 -125 -248 -199 -212 -84 39
-71 154 42 379 107 212 262 362 460 445 120 51 126 51 72 -5 -52 -53 -60 -86
-28 -103 18 -10 30 -3 95 58 97 90 156 129 318 207 210 102 397 138 533 104z
m195 -272 c72 -49 450 -580 668 -941 112 -185 113 -194 41 -301 -38 -56 -56
-75 -73 -75 -26 0 -154 106 -174 143 -8 16 -15 75 -18 148 -5 106 -9 129 -29
163 -58 99 -140 171 -331 291 -130 81 -218 166 -263 252 -37 71 -44 77 -73 68
-19 -6 -21 -13 -16 -49 l6 -41 -68 -38 c-37 -21 -121 -79 -186 -128 -66 -50
-141 -101 -166 -114 -48 -25 -152 -55 -189 -55 -21 0 -20 3 15 68 99 180 253
366 389 468 115 87 295 163 387 164 32 0 56 -7 80 -23z m-1741 -101 c0 -38 29
-108 61 -148 l30 -38 -44 -77 c-25 -43 -53 -99 -63 -125 -11 -27 -21 -48 -24
-48 -3 0 -18 25 -34 55 -33 64 -130 158 -181 176 -19 7 -35 15 -35 19 0 3 33
22 73 43 81 41 120 76 134 122 9 28 22 35 76 44 4 0 7 -10 7 -23z m941 -741
c3 -44 1 -148 -4 -231 -8 -131 -7 -158 8 -210 21 -74 85 -196 165 -315 l61
-91 -53 -56 c-30 -32 -97 -108 -149 -171 l-94 -115 -6 51 c-14 109 -49 157
-87 119 -13 -12 -14 -22 -4 -53 20 -68 24 -128 13 -186 -8 -47 -27 -81 -99
-187 -65 -94 -92 -126 -99 -117 -6 6 -48 75 -94 152 -51 87 -100 155 -128 180
-48 44 -121 149 -121 174 0 9 20 28 45 43 l44 27 29 -53 c31 -53 102 -126 125
-126 18 0 37 21 37 40 0 9 -16 32 -36 51 -40 38 -78 100 -88 142 -4 15 -31 54
-61 87 -30 33 -57 72 -60 87 -11 50 -24 73 -43 73 -25 0 -42 -20 -42 -49 0
-36 42 -121 74 -150 24 -22 25 -26 10 -42 -8 -9 -29 -23 -45 -29 -28 -12 -33
-10 -76 27 -60 51 -70 84 -44 156 12 36 15 59 9 71 -20 36 -70 9 -83 -46 -4
-16 -10 -28 -14 -28 -9 0 -43 60 -69 120 l-19 45 131 0 c123 0 138 2 234 34
l103 35 79 -23 c89 -26 110 -23 110 15 0 21 -8 29 -50 47 l-49 21 67 70 c80
85 109 137 161 287 22 63 49 136 60 162 l21 48 62 -3 63 -3 6 -80z m-414 -196
c-63 -176 -202 -298 -380 -335 -110 -23 -208 1 -257 63 -18 23 -21 37 -18 80
3 29 8 56 11 59 4 4 35 -1 69 -11 87 -24 205 -23 290 4 77 25 193 99 257 165
25 25 46 44 48 42 2 -2 -7 -32 -20 -67z m-2324 -194 c48 -36 87 -68 87 -71 0
-12 -21 -44 -29 -44 -16 0 -191 141 -191 154 0 44 38 33 133 -39z m289 -98
c47 -37 90 -79 96 -91 6 -13 14 -56 18 -95 5 -60 11 -75 32 -91 34 -27 131
-56 271 -81 326 -58 377 -74 484 -147 55 -37 72 -44 85 -35 31 19 26 46 -13
79 -36 30 -37 32 -26 67 7 20 21 47 33 62 44 57 161 89 263 73 65 -10 165 -52
165 -69 0 -11 -166 -324 -271 -510 -48 -84 -75 -109 -120 -109 -34 0 -262 123
-662 357 -98 57 -197 111 -220 119 -23 8 -82 19 -132 24 -49 4 -116 18 -148
30 -75 28 -207 117 -320 215 -78 69 -87 79 -87 111 0 41 -10 46 132 -58 59
-43 117 -78 127 -78 14 0 37 24 72 78 29 42 53 78 55 80 1 2 11 -3 23 -10 18
-11 21 -23 21 -76 0 -90 37 -152 91 -152 44 0 47 33 9 77 -34 38 -34 36 -14
139 5 28 2 34 -30 54 -44 26 -70 73 -62 106 8 29 -1 33 128 -69z m-377 -8
c104 -80 105 -80 89 -104 l-16 -25 -57 41 c-31 22 -80 57 -108 77 -29 21 -53
44 -53 53 0 16 19 39 32 39 5 0 56 -36 113 -81z m4085 52 l35 -29 -104 -153
c-57 -85 -106 -156 -108 -158 -2 -3 -16 7 -31 22 -15 14 -37 30 -50 34 -22 9
-19 15 93 161 65 84 120 152 124 152 4 0 22 -13 41 -29z m-873 -68 c41 -117
133 -253 171 -253 8 0 40 12 71 27 60 30 165 42 210 26 l24 -10 -35 -21 c-22
-13 -52 -22 -77 -22 -52 0 -103 -21 -147 -60 -19 -16 -45 -30 -58 -30 -61 0
-236 283 -213 344 8 21 46 20 54 -1z m616 -309 c90 -90 -23 -280 -148 -248
-42 10 -75 59 -75 110 0 52 16 88 57 125 34 32 47 37 99 38 32 1 47 -5 67 -25z
m168 -181 c8 -29 10 -73 5 -127 -6 -80 -5 -84 17 -99 42 -27 121 -49 200 -54
89 -7 114 -21 96 -55 -10 -19 -18 -20 -84 -15 -88 6 -216 40 -270 70 -46 26
-48 37 -20 138 17 59 17 69 4 110 -8 25 -13 65 -11 89 l5 44 22 -28 c13 -16
29 -49 36 -73z"/>
<path d="M1688 3019 c-32 -12 -42 -34 -27 -61 11 -21 34 -21 92 1 23 9 28 16
25 39 -2 22 -8 27 -33 29 -16 1 -42 -3 -57 -8z"/>
<path d="M2667 2593 c-12 -12 -7 -50 8 -63 32 -27 82 23 55 55 -13 15 -51 20
-63 8z"/>
<path d="M2778 1201 c-18 -15 -52 -40 -75 -55 -48 -29 -56 -58 -22 -76 17 -10
30 -6 75 21 30 19 68 48 85 65 26 27 29 35 20 53 -16 29 -44 26 -83 -8z"/>
</g>
</svg>
