<?xml version="1.0" standalone="no"?>
<!DOCTYPE svg PUBLIC "-//W3C//DTD SVG 20010904//EN"
 "http://www.w3.org/TR/2001/REC-SVG-20010904/DTD/svg10.dtd">
<svg version="1.0" xmlns="http://www.w3.org/2000/svg"
 width="512.000000pt" height="512.000000pt" viewBox="0 0 512.000000 512.000000"
 preserveAspectRatio="xMidYMid meet">

<g transform="translate(0.000000,512.000000) scale(0.100000,-0.100000)"
fill="#000000" stroke="none">
<path d="M1732 4991 c-70 -24 -156 -85 -197 -139 -64 -83 -68 -194 -11 -282
13 -20 27 -50 30 -68 11 -46 -17 -128 -64 -190 -43 -57 -48 -73 -25 -92 32
-26 170 55 265 156 106 113 121 150 73 181 -87 53 -109 103 -72 158 42 61 64
68 205 60 107 -6 127 -5 150 9 43 29 29 57 -41 81 -76 26 -119 56 -151 106
-22 35 -28 39 -67 39 -23 -1 -66 -9 -95 -19z"/>
<path d="M3981 4905 c-138 -25 -152 -34 -199 -128 -75 -151 -176 -253 -317
-322 -132 -65 -249 -80 -395 -49 -116 24 -204 7 -435 -81 -12 -5 -1 12 27 41
42 44 48 56 58 118 21 133 89 234 192 285 149 75 284 16 304 -133 9 -61 26
-69 129 -64 89 5 135 24 135 57 0 36 -23 43 -86 26 -71 -18 -94 -19 -98 -2 -2
6 -9 31 -15 55 -14 52 -70 116 -123 143 -22 11 -77 25 -123 31 -155 21 -277
-21 -402 -136 -65 -61 -147 -167 -189 -246 l-18 -35 -7 80 c-4 43 -3 90 2 103
5 13 32 47 60 77 57 61 64 98 18 103 -20 2 -37 -9 -78 -52 -71 -76 -81 -104
-81 -234 0 -116 -17 -189 -63 -265 -55 -90 -210 -181 -446 -261 -109 -38 -132
-43 -126 -28 4 9 24 61 45 116 36 91 71 145 112 167 12 7 24 2 46 -20 35 -35
96 -55 124 -40 22 12 21 48 -2 59 -62 28 -77 39 -89 64 -12 26 -17 28 -58 23
-86 -9 -157 -91 -211 -244 -44 -121 -96 -182 -179 -207 -22 -7 -23 -4 -23 39
0 57 -12 80 -52 101 -37 19 -108 13 -147 -13 -16 -11 -55 -20 -102 -23 -47 -4
-90 -14 -115 -27 -26 -13 -58 -20 -96 -20 -63 0 -108 -21 -142 -66 -15 -21
-22 -47 -24 -102 -3 -58 -8 -75 -21 -79 -60 -16 -123 -27 -128 -23 -3 4 0 36
7 72 10 52 10 68 0 80 -23 27 -46 16 -97 -47 -107 -132 -229 -232 -375 -307
-94 -49 -116 -74 -86 -99 33 -27 183 -47 351 -47 165 0 169 1 188 23 14 18 16
28 9 43 -6 10 -16 19 -23 19 -7 0 -21 6 -32 13 -16 12 -2 18 119 52 148 41
155 41 156 -15 1 -43 39 -113 87 -157 l46 -43 -51 -127 c-79 -202 -135 -404
-171 -618 -23 -136 -43 -367 -40 -466 2 -57 -1 -71 -23 -100 -48 -63 -62 -101
-62 -169 -1 -54 4 -74 28 -117 67 -121 188 -155 426 -118 150 23 147 24 100
-37 -24 -32 -49 -81 -61 -121 -64 -207 39 -401 233 -437 69 -13 122 2 169 49
64 63 71 141 17 186 -37 31 -77 32 -127 3 -33 -19 -41 -20 -55 -9 -24 20 -19
46 14 75 54 45 137 47 200 3 52 -35 73 -70 78 -132 7 -79 -18 -136 -90 -207
-42 -42 -58 -65 -58 -84 0 -36 52 -115 107 -164 101 -88 292 -144 400 -117 31
8 31 8 48 -45 41 -124 106 -219 171 -248 75 -32 252 -87 374 -114 329 -73 670
-75 941 -6 90 23 241 85 298 123 32 21 51 25 151 29 131 5 164 17 242 90 25
23 62 57 82 74 31 27 36 37 36 75 0 26 -8 57 -19 75 -22 36 -78 59 -117 50
l-26 -7 19 31 c27 47 69 67 166 79 124 17 241 53 391 122 106 49 140 70 178
110 97 102 104 236 20 372 -24 39 -46 99 -69 183 -62 235 -142 406 -249 531
l-45 52 44 54 c185 227 142 513 -93 631 -94 47 -189 62 -305 48 -59 -7 -107
-8 -139 -1 -53 10 -96 41 -96 70 0 9 -8 27 -18 40 l-19 22 -29 -58 c-36 -73
-88 -105 -171 -105 -65 0 -98 15 -146 69 -33 36 -37 47 -37 94 0 29 5 58 12
65 30 30 73 -2 62 -45 -8 -31 21 -78 56 -93 64 -26 158 30 180 108 32 118 -15
248 -109 297 -18 9 -73 20 -124 24 -104 9 -147 24 -201 71 -43 38 -68 84 -85
155 -17 69 -50 121 -113 182 -62 58 -108 84 -193 108 -67 20 -152 16 -191 -10
-22 -14 -29 -14 -95 6 -52 16 -86 20 -125 16 -160 -16 -311 -171 -409 -418
-45 -114 -126 -186 -231 -205 -93 -16 -146 -73 -152 -162 -5 -78 23 -120 97
-145 67 -22 115 -14 155 25 25 26 28 34 23 73 -5 31 -2 46 8 55 37 31 79 -18
71 -83 -6 -56 -47 -111 -101 -137 -47 -23 -104 -24 -216 -4 -56 9 -83 -15
-134 -120 -24 -51 -52 -99 -62 -107 -10 -9 -70 -43 -134 -76 l-115 -60 9 66
c11 84 -5 213 -40 324 -32 102 -52 214 -53 291 0 57 1 60 44 97 72 64 86 105
89 256 l2 130 85 19 c47 10 115 19 152 18 57 0 78 -6 151 -42 88 -44 136 -52
158 -26 19 24 2 42 -65 69 -83 34 -87 41 -26 54 35 8 70 26 108 55 63 48 141
90 187 100 17 3 95 11 175 16 230 16 339 31 363 51 31 25 14 49 -49 68 -28 9
-49 22 -49 30 0 38 257 87 409 78 195 -12 311 -60 372 -152 46 -69 88 -90 158
-80 28 4 80 10 115 14 73 7 98 28 69 57 -20 20 -89 23 -182 10 -52 -8 -61 -7
-72 9 -47 64 18 231 113 294 86 57 163 51 274 -20 104 -68 179 -85 237 -55 15
8 52 41 83 74 68 73 121 101 203 110 59 7 61 8 61 36 0 24 -5 31 -30 38 -37
10 -111 -5 -168 -33 -23 -12 -74 -53 -113 -90 -81 -79 -104 -85 -182 -45 -57
29 -96 68 -116 118 -34 81 -13 123 85 172 63 32 81 36 145 36 41 0 118 -7 172
-16 151 -25 239 -9 355 62 37 23 77 38 110 43 62 8 77 16 77 40 0 58 -104 55
-206 -6 -116 -69 -248 -93 -329 -59 -44 19 -77 71 -72 111 9 60 -2 65 -126 64
-62 0 -145 -7 -186 -14z m-2583 -975 c2 -25 1 -68 -3 -96 l-6 -52 -49 -9 c-27
-6 -52 -8 -55 -5 -3 3 -5 45 -5 93 0 86 1 89 28 104 15 8 41 14 57 12 28 -2
30 -5 33 -47z m-190 -87 l3 -92 -28 -7 c-49 -10 -53 -13 -62 -37 -10 -26 2
-102 19 -123 13 -15 2 -24 -30 -24 -43 0 -50 16 -50 118 0 99 -10 132 -38 132
-34 0 -42 -22 -42 -106 0 -88 -3 -94 -59 -94 -45 0 -51 15 -51 130 0 133 9
145 104 145 46 1 75 8 116 28 32 16 68 26 85 25 l30 -3 3 -92z m236 -159 c12
-12 16 -38 16 -113 0 -120 -21 -168 -94 -221 l-48 -35 6 -110 c7 -121 19 -185
61 -320 24 -75 28 -109 29 -205 1 -139 -19 -218 -63 -249 -47 -34 -114 -127
-106 -150 7 -22 29 -33 48 -25 6 3 30 29 52 57 103 131 459 308 698 347 68 11
170 13 204 4 21 -6 20 -8 -22 -71 -63 -94 -90 -178 -90 -283 0 -94 14 -145 50
-184 35 -38 78 -35 121 8 32 32 39 53 34 99 -5 48 65 67 76 21 10 -40 -2 -114
-23 -143 -11 -14 -46 -46 -78 -70 -76 -59 -99 -108 -93 -201 8 -114 71 -198
251 -333 26 -20 47 -40 47 -44 -1 -4 -29 -27 -62 -50 -68 -48 -85 -50 -212
-33 -237 33 -430 164 -520 352 -43 92 -56 104 -87 88 -27 -15 -24 -35 16 -119
19 -40 35 -74 35 -75 0 -1 -35 3 -77 10 -141 23 -376 28 -492 10 -231 -35
-334 -15 -378 74 -28 54 -29 102 -4 155 51 110 167 134 216 43 19 -35 19 -38
2 -74 -17 -34 -17 -38 -1 -55 24 -27 41 -24 65 14 27 44 23 131 -10 173 -38
49 -89 74 -150 74 l-54 0 6 148 c14 320 87 642 213 952 74 181 72 167 33 187
-42 22 -109 89 -109 108 0 11 8 13 33 7 41 -9 85 -9 119 1 25 7 27 5 30 -30 3
-35 6 -38 33 -38 26 0 30 5 38 38 8 35 17 45 86 96 18 13 22 23 17 39 -4 12
-12 22 -18 22 -25 0 -76 33 -87 57 -6 14 -10 27 -9 28 2 2 37 10 78 18 103 20
155 20 174 1z m1509 -231 c18 -11 42 -34 54 -51 29 -44 64 -197 71 -309 l5
-93 -40 -40 c-47 -46 -76 -50 -174 -25 -33 9 -72 14 -86 13 -36 -4 -41 22 -11
62 24 33 18 62 -16 68 -40 8 -92 -76 -81 -129 7 -29 6 -29 -39 -29 -24 0 -47
4 -50 8 -3 5 3 31 13 58 10 27 24 75 31 106 12 54 14 56 37 47 63 -24 85 43
24 72 -34 16 -35 18 -32 70 5 98 45 157 126 187 41 16 129 7 168 -15z m836
-753 c40 -11 90 -29 111 -40 91 -46 118 -133 61 -191 -38 -38 -66 -37 -166 4
-103 42 -171 82 -191 112 -36 54 12 135 80 135 17 0 64 -9 105 -20z m-203
-301 c22 -17 48 -37 58 -45 19 -13 19 -14 1 -61 -93 -250 -317 -576 -559 -813
-77 -75 -88 -97 -61 -120 12 -10 27 -5 82 25 90 49 179 113 253 182 33 30 60
49 60 41 0 -33 -35 -129 -76 -208 -68 -132 -163 -250 -348 -435 -227 -226
-449 -396 -680 -520 l-89 -48 -18 24 c-22 28 -79 170 -79 196 0 12 22 30 63
52 157 86 316 208 426 328 73 79 83 105 49 127 -13 8 -23 8 -39 -2 -142 -89
-460 -247 -554 -276 -34 -10 -108 44 -134 98 -13 25 -20 50 -16 55 3 6 47 31
98 57 140 70 334 189 468 286 l120 88 78 0 c156 0 330 83 404 192 34 52 34 73
-3 143 -36 68 -39 121 -9 181 31 65 105 104 137 72 21 -21 13 -37 -28 -63 -50
-31 -65 -65 -50 -111 12 -35 26 -44 70 -44 21 0 45 15 87 54 97 90 141 205
130 344 l-6 75 56 78 c30 44 58 79 62 79 5 0 26 -14 47 -31z m464 -231 c63
-265 116 -819 90 -944 -29 -142 -129 -268 -269 -337 -91 -45 -116 -48 -107
-11 15 58 56 348 70 494 24 245 36 418 43 658 l6 222 41 0 c23 1 52 7 66 15
31 17 34 14 60 -97z m349 16 c77 -35 150 -101 226 -202 99 -132 215 -382 241
-517 6 -33 5 -35 -22 -35 -125 0 -215 -173 -136 -261 23 -26 38 -32 82 -37 43
-4 56 -2 66 13 20 26 1 55 -36 55 -32 0 -70 30 -70 55 0 25 28 73 49 85 45 24
109 0 141 -53 39 -63 16 -186 -43 -237 -30 -26 -229 -121 -312 -148 -74 -25
-203 -52 -247 -52 -43 -1 -112 -32 -144 -67 -36 -38 -106 -180 -102 -206 4
-32 38 -32 97 -3 65 33 88 33 104 -1 11 -24 9 -28 -18 -47 -16 -12 -49 -40
-73 -63 -23 -24 -55 -49 -71 -57 -25 -13 -185 -25 -196 -15 -2 3 2 47 10 99
12 81 45 342 45 361 0 3 31 29 68 57 87 65 136 135 160 229 11 42 28 83 41 97
30 32 102 66 139 66 39 0 65 21 60 50 -3 21 -11 25 -75 36 -76 13 -129 39
-150 73 -7 11 -17 74 -23 138 -14 165 -28 279 -52 416 -19 115 -19 119 -1 139
52 59 155 73 242 32z m-599 -117 c0 -94 -14 -345 -31 -560 l-12 -148 -66 -39
c-63 -37 -189 -86 -198 -77 -2 3 8 30 22 62 70 159 154 478 190 720 9 61 18
122 21 137 l5 27 35 -21 34 -20 0 -81z m-1598 -755 l87 -17 -87 -52 c-101 -61
-122 -70 -122 -53 0 6 -13 45 -30 87 -16 41 -30 76 -30 78 0 2 21 -4 48 -12
26 -8 86 -22 134 -31z m1443 -291 c-16 -79 -59 -217 -85 -273 -18 -38 -6 -73
30 -88 16 -7 30 -14 30 -15 0 -2 -9 -25 -21 -52 -35 -82 -143 -235 -227 -320
l-80 -81 -71 -7 c-75 -7 -321 3 -321 14 1 3 28 26 61 51 88 65 280 267 386
406 84 110 242 342 288 421 11 18 21 31 23 29 2 -3 -4 -41 -13 -85z m-279 54
c9 -8 31 -15 50 -15 32 0 35 -2 29 -22 -24 -78 -177 -332 -280 -463 -129 -164
-362 -370 -408 -360 -117 25 -288 70 -357 94 -68 24 -80 31 -63 36 12 4 70 27
129 51 139 56 291 144 429 247 114 85 341 303 410 395 21 28 41 52 43 52 2 0
10 -7 18 -15z"/>
<path d="M2166 1535 c-9 -9 -16 -20 -16 -24 0 -37 95 -65 124 -36 9 9 16 20
16 25 0 17 -32 40 -55 40 -13 0 -30 3 -38 6 -8 3 -22 -2 -31 -11z"/>
<path d="M2842 3215 c-37 -16 -50 -39 -32 -60 15 -18 45 -19 88 -4 35 12 46
32 32 60 -12 22 -42 24 -88 4z"/>
<path d="M2824 1256 c-12 -32 0 -61 28 -64 35 -4 60 37 38 63 -16 19 -59 20
-66 1z"/>
<path d="M2234 4846 c-3 -8 -4 -25 -2 -38 2 -18 9 -23 32 -23 36 0 56 27 40
53 -14 22 -62 28 -70 8z"/>
<path d="M3581 4784 c-25 -32 -26 -38 -5 -59 22 -21 42 -16 68 18 16 21 18 32
10 45 -18 28 -49 26 -73 -4z"/>
<path d="M4763 4329 c-34 -22 -42 -46 -21 -67 17 -17 36 -15 69 9 33 23 36 40
13 63 -20 20 -22 20 -61 -5z"/>
<path d="M4575 4171 c-45 -20 -131 -86 -216 -167 -83 -78 -144 -90 -284 -54
-96 25 -102 25 -115 1 -15 -30 -5 -43 62 -81 99 -56 153 -116 203 -225 75
-162 163 -235 281 -235 64 0 84 11 84 46 0 27 -17 34 -82 34 -90 0 -137 36
-192 146 -14 29 -26 54 -26 57 0 3 48 8 108 12 168 10 155 0 147 105 -9 118 4
173 68 267 39 59 48 79 40 92 -14 23 -32 23 -78 2z"/>
<path d="M797 4112 c-23 -25 -22 -59 2 -71 28 -16 73 22 69 58 -4 33 -46 41
-71 13z"/>
<path d="M2184 3686 c-15 -40 21 -80 54 -60 37 24 21 74 -25 74 -13 0 -26 -6
-29 -14z"/>
<path d="M4700 3515 c-7 -9 -10 -25 -6 -40 6 -22 11 -26 39 -23 25 2 33 8 35
26 7 44 -41 70 -68 37z"/>
</g>
</svg>
